<svg xml:space="preserve" style="enable-background:new 0 0 222 48;" viewBox="0 0 222 48" y="0px" x="0px" xmlns:xlink="http://www.w3.org/1999/xlink" xmlns="http://www.w3.org/2000/svg" id="Layer_1" version="1.1">
<style type="text/css">
	.st0{fill:#EC1E24;}
	.st1{fill:#FFFFFF;}
</style>
<g>
	<path d="M221.6,18.8c0,2.3-1.9,4.1-4.1,4.1c-2.3,0-4.1-1.8-4.1-4.1c0-2.3,1.9-4.1,4.1-4.1
		C219.8,14.7,221.6,16.5,221.6,18.8" class="st0"></path>
	<g>
		<path d="M136.7,14.6c-5.7,0-10.4,4.6-10.4,10.4c0,5.7,4.6,10.4,10.4,10.4c5.7,0,10.4-4.6,10.4-10.4
			C147,19.3,142.4,14.6,136.7,14.6z M136.7,31.2c-3.4,0-6.2-2.8-6.2-6.2s2.8-6.2,6.2-6.2c3.4,0,6.2,2.8,6.2,6.2
			S140.1,31.2,136.7,31.2z" class="st1"></path>
		<polygon points="0.4,35.4 5.2,35.4 11.5,22.9 15.6,31.2 7.4,31.2 9.6,35.4 22.6,35.4 11.4,14.6" class="st1"></polygon>
		<path d="M91,20.8c0-3.4-2.8-6.2-6.2-6.2v0H72.4v4.1l-2.9-4.2H55.7v4.2l-2.9-4.1H37l0,0H22.6l0,20.7l4.1,0l0.1-8.3H35
			l0.1-4.1h-8.2v-4.1H38l0,0h5.3v16.6h4.1V18.8h8.3v16.6h16.6v0h4.1v-8.3h3.3l6,8.3H91l0,0l-6-8.3C88.3,27,91,24.2,91,20.8z
			 M84.8,22.9h-8.3v0h-4.1v0v4.1v4.6H59.9v-4.6h7.9l0.1-4.1h-7.9v-4.2h12.4h12.5v0c1.1,0,2,0.9,2,2.1C86.9,22,85.9,22.9,84.8,22.9
			L84.8,22.9z" class="st1"></path>
		<path d="M184.4,14.6L184.4,14.6l-5.9,0l-8.8,8.8v-8.8h-4.1v4.1v12.5h-8.3v0c-3.4,0-6.2-2.8-6.2-6.2
			c0-3.4,2.8-6.2,6.2-6.2v0h8.3l-2.9-4.1h-5.4c-5.7,0-10.4,4.6-10.4,10.4c0,5.7,4.6,10.4,10.4,10.4v0h8.3h4.1v-8.8l8.8,8.8h5.9
			L174.1,25L184.4,14.6z" class="st1"></path>
		<path d="M103.5,22.9L103.5,22.9l-6.2,0v4.1h6.2v0c1.1,0,2,0.9,2,2.1c0,1.1-0.9,2.1-2,2.1v0H91v4.1h12.5v0
			c3.4,0,6.2-2.8,6.2-6.2C109.7,25.7,106.9,22.9,103.5,22.9z" class="st1"></path>
		<path d="M126.3,14.6h-4.1v8.3h-8.3v-8.3h-4.1v4.1l-2.9-4.1h-9.5v0c-3.4,0-6.2,2.8-6.2,6.2c0,3.4,2.8,6.2,6.2,6.2v-4.2
			c-1.1,0-2-0.9-2-2.1c0-1.1,0.9-2.1,2-2.1v0h12.4v4.2h0v4.1h0v2.1v6.2h4.1v-8.3h8.3v8.3h4.1v-8.3V25v-2.1V14.6z" class="st1"></path>
	</g>
	<path d="M198.4,17c0,0,0-3.5,1.5-4.7c0,0,0.7-0.7,1.2,0.3l12.3,25.6c0,0,1.9,4.2,8.1,5L202.2,4.8c0,0-7.6,2-8.2,10.4
		l-1.3,28c0,0,4.7-2.7,4.9-6.7L198.4,17L198.4,17z" class="st0"></path>
</g>
</svg>
